# xmcd
#
# Track frame offsets:
#	150
#	19819
#	40478
#	55800
#	73209
#	91750
#	111013
#	125456
#	144816
#	165235
#	181605
#	204651
#	222712
#
# Disc length: 3265 seconds
#
# Revision: 0
# Processed by: cddbd v1.5.2PL0 Copyright (c) Steve Scherf et al.
# Submitted via: audiograbber 1.83.01
#
DISCID=b30cbf0d
DTITLE=Patricia Kaas - Dans Ma Chair
DYEAR=1997
DGENRE=Chanson
TTITLE0=Quand J'ai Peur De Tout
TTITLE1=Dans Ma Chair
TTITLE2=Chanson Simple
TTITLE3=J'ai Tout Quitte Pour Toi
TTITLE4=Je Me Souviens De Rien
TTITLE5=Les Lignes De Nos Mains
TTITLE6=Je Sais
TTITLE7=Je Voudrais La Connaitre
TTITLE8=Fais-Moi L'amitie
TTITLE9=L?amour Devant La Mer
TTITLE10=Je Compte Jusqu'a Toi
TTITLE11=Sans Toi
TTITLE12=Don't Let Me Be Lonely Tonight
EXTD=
EXTT0=
EXTT1=
EXTT2=
EXTT3=
EXTT4=
EXTT5=
EXTT6=
EXTT7=
EXTT8=
EXTT9=
EXTT10=
EXTT11=
EXTT12=
PLAYORDER=
